<svg width="150" height="150" viewBox="0 0 150 150" fill="none" xmlns="http://www.w3.org/2000/svg">
<g clip-path="url(#clip0_421_550)">
<path d="M150 75C150 33.5786 116.421 0 75 0C33.5786 0 0 33.5786 0 75C0 116.421 33.5786 150 75 150C116.421 150 150 116.421 150 75Z" fill="black"/>
<path d="M38.6787 77.7412C39.3433 77.7412 39.8948 78.0125 40.332 78.5547V80.6797H40.1348L40.1221 80.3652C40.0871 79.692 39.9469 79.1542 39.7021 78.752C39.4574 78.341 39.1079 78.1349 38.6533 78.1348C38.2598 78.1348 37.9224 78.2789 37.6426 78.5674C37.3715 78.856 37.2363 79.2417 37.2363 79.7227C37.2364 80.0723 37.2975 80.3873 37.4199 80.667C37.5511 80.9467 37.7218 81.1827 37.9316 81.375C38.1415 81.5586 38.3685 81.7382 38.6133 81.9131C38.8581 82.088 39.1038 82.2754 39.3486 82.4766C39.6022 82.6689 39.8331 82.884 40.043 83.1201C40.2528 83.3562 40.4196 83.6573 40.542 84.0244C40.6732 84.3917 40.7383 84.8119 40.7383 85.2842C40.7383 86.1411 40.5113 86.81 40.0566 87.291C39.6019 87.7633 39.0288 88 38.3379 88C37.5247 87.9999 36.8291 87.7109 36.252 87.1338V84.8516H36.4492L36.4619 85.166C36.5144 85.918 36.7029 86.5169 37.0264 86.9629C37.3499 87.4002 37.7919 87.6191 38.3516 87.6191C38.8324 87.6191 39.2124 87.4701 39.4922 87.1729C39.7808 86.8668 39.9258 86.4426 39.9258 85.9004C39.9257 85.4982 39.8597 85.135 39.7285 84.8115C39.6061 84.4882 39.4402 84.2215 39.2305 84.0117C39.0294 83.8019 38.8014 83.6055 38.5479 83.4219C38.303 83.2295 38.0534 83.0371 37.7998 82.8447C37.555 82.6523 37.328 82.4461 37.1182 82.2275C36.9172 82.0003 36.7512 81.7207 36.6201 81.3887C36.4977 81.0476 36.4355 80.6619 36.4355 80.2334C36.4356 79.5078 36.6419 78.9136 37.0527 78.4502C37.4724 77.9781 38.0143 77.7413 38.6787 77.7412ZM45.3916 77.7412C46.4148 77.7412 47.272 78.2315 47.9629 79.2109C48.6623 80.1903 49.0117 81.41 49.0117 82.8701C49.0117 84.3305 48.6624 85.5508 47.9629 86.5303C47.272 87.5097 46.4148 88 45.3916 88C44.3684 88 43.5072 87.5097 42.8076 86.5303C42.1167 85.5508 41.7715 84.3306 41.7715 82.8701C41.7715 81.4099 42.1169 80.1903 42.8076 79.2109C43.5072 78.2315 44.3684 77.7412 45.3916 77.7412ZM52.5557 78.1748H52.3984C51.8913 78.1748 51.6378 78.4324 51.6377 78.9482V84.6025C51.6378 86.5176 52.3549 87.4746 53.7891 87.4746C54.4972 87.4745 55.0529 87.2082 55.4551 86.6748C55.8659 86.1327 56.0713 85.3718 56.0713 84.3926V79.5781C56.0713 78.6424 55.7606 78.1748 55.1396 78.1748H54.9561V77.9512H57.3965V78.1748H57.2129C56.7144 78.1748 56.4648 78.6424 56.4648 79.5781V84.3662C56.4648 85.5206 56.2113 86.4173 55.7041 87.0557C55.2056 87.6853 54.5141 88 53.6309 88C52.6866 87.9999 51.9386 87.7158 51.3877 87.1475C50.8455 86.5703 50.5752 85.6864 50.5752 84.4971V78.9482C50.5751 78.4324 50.3206 78.1748 49.8135 78.1748H49.6562V77.9512H52.5557V78.1748ZM64.0342 85.4414V79.5908C64.0341 79.1101 63.9552 78.7556 63.7979 78.5283C63.6404 78.2923 63.3779 78.1748 63.0107 78.1748H62.8135V77.9512H65.5029V78.1748H65.3193C64.7248 78.1748 64.4278 78.6466 64.4277 79.5908V87.9209H64.2178L59.4033 79.8799V86.1504C59.4033 86.6313 59.4823 86.9895 59.6396 87.2256C59.7971 87.453 60.0595 87.5674 60.4268 87.5674H60.6367V87.79H57.9336V87.5674H58.1309C58.7167 87.5673 59.0097 87.0947 59.0098 86.1504V80.1162C59.0098 79.1193 58.7207 78.4938 58.1436 78.2402L57.9336 78.1484V77.9512H59.5479L64.0342 85.4414ZM119.502 86.583C119.694 86.5831 119.851 86.6484 119.974 86.7793C120.096 86.9017 120.157 87.0596 120.157 87.252C120.157 87.4531 120.096 87.6149 119.974 87.7373C119.851 87.8596 119.694 87.9209 119.502 87.9209C119.301 87.9209 119.139 87.8596 119.017 87.7373C118.894 87.6149 118.833 87.4531 118.833 87.252C118.833 87.0508 118.894 86.889 119.017 86.7666C119.139 86.6442 119.301 86.583 119.502 86.583ZM112.677 77.9512C113.315 77.9512 113.822 78.1744 114.198 78.6201C114.574 79.0661 114.763 79.6305 114.763 80.3125C114.763 80.9334 114.614 81.4671 114.316 81.9131C114.019 82.359 113.595 82.6481 113.044 82.7793L114.75 86.2949C114.995 86.8017 115.191 87.1425 115.34 87.3174C115.497 87.4835 115.672 87.5673 115.864 87.5674H115.93V87.79C115.239 87.8599 114.767 87.847 114.514 87.751C114.269 87.646 114.041 87.361 113.831 86.8975L111.981 82.9492H111.286V86.793C111.286 87.3089 111.523 87.5674 111.995 87.5674H112.218V87.79H109.306V87.5674H109.463C109.97 87.5674 110.224 87.3089 110.224 86.793V78.9482C110.224 78.4324 109.97 78.1748 109.463 78.1748H109.306V77.9512H112.677ZM32.7549 78.1748H32.584C32.0771 78.1749 31.8233 78.4325 31.8232 78.9482V86.793C31.8232 87.3088 32.077 87.5673 32.584 87.5674H32.7549V87.79H29.8428V87.5674H30C30.5072 87.5674 30.7607 87.3089 30.7607 86.793V78.9482C30.7607 78.4324 30.5071 78.1748 30 78.1748H29.8428V77.9512H32.7549V78.1748ZM69.4668 77.9512C70.56 77.9512 71.4517 78.4109 72.1426 79.3291C72.8422 80.2386 73.1924 81.4105 73.1924 82.8447C73.1923 84.2613 72.8382 85.4423 72.1299 86.3867C71.4215 87.3223 70.5159 87.79 69.4141 87.79H66.1221V87.5674H66.2793C66.7864 87.5673 67.04 87.3089 67.04 86.793V78.9482C67.04 78.4325 66.7864 78.1748 66.2793 78.1748H66.1221V77.9512H69.4668ZM79.4473 77.9512C80.1118 77.9512 80.6278 78.1703 80.9951 78.6074C81.3712 79.0359 81.5596 79.5874 81.5596 80.2607C81.5595 80.7676 81.437 81.2308 81.1924 81.6504C80.9475 82.0614 80.5668 82.3416 80.0508 82.4902C80.7503 82.5864 81.2663 82.8707 81.5986 83.3428C81.9396 83.8062 82.1103 84.3835 82.1104 85.0742C82.1104 85.8875 81.8874 86.5435 81.4414 87.042C81.0042 87.5404 80.3747 87.79 79.5527 87.79H76.5879V87.5674H76.7451C77.2523 87.5674 77.5059 87.3089 77.5059 86.793V78.9482C77.5058 78.4324 77.2523 78.1748 76.7451 78.1748H76.5879V77.9512H79.4473ZM88.373 80.2861H88.2148L88.1494 79.998C88.0008 79.4122 87.8084 78.9968 87.5723 78.752C87.3449 78.5071 86.9778 78.3848 86.4707 78.3848H84.9229V82.5293H85.8799C86.2647 82.5293 86.5359 82.4159 86.6934 82.1885C86.8595 81.9612 86.973 81.5722 87.0342 81.0215L87.0605 80.7715H87.2314V84.668H87.0605L87.0342 84.4316C86.973 83.8895 86.8595 83.5087 86.6934 83.29C86.5359 83.0717 86.2645 82.9629 85.8799 82.9629H84.9229V87.3574H86.5752C87.1611 87.3574 87.5991 87.2085 87.8877 86.9111C88.1762 86.6051 88.4072 86.0889 88.582 85.3633L88.6484 85.1143H88.8184L88.4512 87.79H82.9414V87.5674H83.0996C83.6066 87.5673 83.8603 87.3088 83.8604 86.793V78.9482C83.8603 78.4326 83.6065 78.1749 83.0996 78.1748H82.9414V77.9512H88.1885L88.373 80.2861ZM95.4688 80.457H95.3115L95.2324 80.1025C95.0838 79.4732 94.8913 79.0319 94.6553 78.7783C94.4192 78.516 94.0384 78.3848 93.5137 78.3848H92.9502V86.793C92.9502 87.3089 93.2037 87.5674 93.7109 87.5674H93.8809V87.79H90.9688V87.5674H91.1396C91.6381 87.5674 91.8877 87.3089 91.8877 86.793V78.3848H91.3369C90.8122 78.3848 90.4314 78.516 90.1953 78.7783C89.9593 79.0319 89.7668 79.4732 89.6182 80.1025L89.5391 80.457H89.3691L89.5654 77.9512H95.2715L95.4688 80.457ZM102.066 80.457H101.908L101.83 80.1025C101.681 79.4733 101.489 79.032 101.253 78.7783C101.017 78.516 100.636 78.3848 100.111 78.3848H99.5469V86.793C99.5469 87.3089 99.8014 87.5674 100.309 87.5674H100.479V87.79H97.5664V87.5674H97.7373C98.2356 87.5673 98.4844 87.3088 98.4844 86.793V78.3848H97.9336C97.409 78.3848 97.0291 78.516 96.793 78.7783C96.5569 79.0319 96.3645 79.4731 96.2158 80.1025L96.1367 80.457H95.9658L96.1631 77.9512H101.869L102.066 80.457ZM108.152 80.2861H107.994L107.929 79.998C107.78 79.4122 107.588 78.9968 107.352 78.752C107.124 78.5071 106.757 78.3848 106.25 78.3848H104.702V82.5293H105.659C106.044 82.5293 106.315 82.4159 106.473 82.1885C106.639 81.9612 106.752 81.5722 106.813 81.0215L106.84 80.7715H107.011V84.668H106.84L106.813 84.4316C106.752 83.8895 106.639 83.5087 106.473 83.29C106.315 83.0716 106.044 82.9629 105.659 82.9629H104.702V87.3574H106.354C106.94 87.3574 107.378 87.2085 107.667 86.9111C107.955 86.6051 108.186 86.0889 108.361 85.3633L108.428 85.1143H108.598L108.23 87.79H102.721V87.5674H102.879C103.386 87.5672 103.64 87.3088 103.64 86.793V78.9482C103.64 78.4326 103.386 78.1749 102.879 78.1748H102.721V77.9512H107.968L108.152 80.2861ZM45.3916 78.1611C44.6045 78.1611 43.9969 78.6031 43.5684 79.4863C43.1399 80.3608 42.9258 81.4886 42.9258 82.8701C42.9258 84.2517 43.1399 85.3844 43.5684 86.2676C43.9969 87.1421 44.6045 87.5801 45.3916 87.5801C46.1787 87.5801 46.7863 87.1421 47.2148 86.2676C47.652 85.3844 47.8711 84.2517 47.8711 82.8701C47.8711 81.4886 47.652 80.3608 47.2148 79.4863C46.7863 78.6031 46.1787 78.1611 45.3916 78.1611ZM68.1025 87.3574H69.3623C70.2541 87.3573 70.9272 86.941 71.3818 86.1104C71.8365 85.2796 72.0645 84.1953 72.0645 82.8574C72.0644 81.537 71.8277 80.4616 71.3555 79.6309C70.8921 78.8002 70.2279 78.3849 69.3623 78.3848H68.1025V87.3574ZM78.5684 87.3574H79.5527C80.0336 87.3573 80.3918 87.1512 80.6279 86.7402C80.864 86.3293 80.9824 85.7874 80.9824 85.1143C80.9824 84.4585 80.8512 83.9247 80.5889 83.5137C80.3266 83.094 79.9505 82.8839 79.4609 82.8838H78.5684V87.3574ZM119.476 77.7412C119.86 77.7413 120.053 78.052 120.053 78.6729C120.053 79.1276 119.983 80.0855 119.843 81.5459C119.703 82.9975 119.633 84.1913 119.633 85.127H119.345C119.345 84.1913 119.27 82.9975 119.121 81.5459C118.972 80.0855 118.898 79.1276 118.898 78.6729C118.898 78.0519 119.091 77.7412 119.476 77.7412ZM111.286 82.5166H112.271C112.734 82.5165 113.074 82.3281 113.293 81.9521C113.52 81.5761 113.635 81.0779 113.635 80.457C113.635 79.8274 113.525 79.3243 113.307 78.9482C113.097 78.5723 112.777 78.3848 112.349 78.3848H111.286V82.5166ZM78.5684 82.4512H79.1191C79.5739 82.4512 79.9113 82.2539 80.1299 81.8604C80.3571 81.4669 80.4707 80.9507 80.4707 80.3125C80.4707 79.7354 80.3701 79.2716 80.1689 78.9219C79.9678 78.5636 79.6618 78.3848 79.251 78.3848H78.5684V82.4512ZM100.376 70.8418C100.857 70.8418 101.098 71.2002 101.098 71.917C101.098 72.4242 100.993 72.8839 100.783 73.2949C100.573 73.7059 100.288 74.0246 99.9297 74.252L99.8379 74.0557C100.38 73.6621 100.651 73.1285 100.651 72.4551C100.651 72.2629 100.635 72.1186 100.6 72.0225C100.504 72.0749 100.403 72.1005 100.298 72.1006C100.123 72.1006 99.9829 72.0483 99.8779 71.9434C99.773 71.8297 99.7207 71.6856 99.7207 71.5107C99.7207 71.3184 99.7819 71.1605 99.9043 71.0381C100.027 70.9072 100.184 70.8418 100.376 70.8418ZM53.1289 62C54.0821 62 54.9088 62.3365 55.6084 63.0098V65.332H55.3984V65.0957C55.3809 64.3351 55.1667 63.6926 54.7559 63.168C54.3537 62.6434 53.8246 62.381 53.1689 62.3809C52.2944 62.3809 51.6118 62.8267 51.1221 63.7188C50.6325 64.6019 50.3877 65.7386 50.3877 67.1289C50.3877 68.5107 50.6323 69.648 51.1221 70.54C51.6117 71.4318 52.2808 71.8778 53.1289 71.8779C53.7935 71.8779 54.3312 71.6412 54.7422 71.1689C55.1532 70.688 55.3683 70.0714 55.3857 69.3193L55.3984 68.9395H55.6084V71.1689C54.8913 71.8948 54.0558 72.2578 53.1025 72.2578C51.9221 72.2577 50.9818 71.7773 50.2822 70.8154C49.5826 69.8535 49.2334 68.6332 49.2334 67.1553C49.2334 65.7036 49.6092 64.4833 50.3613 63.4951C51.1221 62.4984 52.0447 62.0001 53.1289 62ZM70.4355 62C71.3886 62 72.2155 62.3366 72.915 63.0098V65.332H72.7051V65.0957C72.6876 64.335 72.4734 63.6926 72.0625 63.168C71.6603 62.6433 71.1314 62.3809 70.4756 62.3809C69.6011 62.3809 68.9184 62.8267 68.4287 63.7188C67.9391 64.6019 67.6944 65.7387 67.6943 67.1289C67.6943 68.5107 67.939 69.648 68.4287 70.54C68.9183 71.4318 69.5875 71.8778 70.4355 71.8779C71.1002 71.8779 71.6388 71.6412 72.0498 71.1689C72.4606 70.688 72.6749 70.0712 72.6924 69.3193L72.7051 68.9395H72.915V71.1689C72.198 71.8947 71.3632 72.2577 70.4102 72.2578C69.2297 72.2578 68.2894 71.7772 67.5898 70.8154C66.8902 69.8535 66.54 68.6332 66.54 67.1553C66.54 65.7036 66.9159 64.4833 67.668 63.4951C68.4287 62.4984 69.3514 62.0001 70.4355 62ZM87.792 70.1328L90.2969 62.21H92.1201V62.3936L91.8848 62.4854C91.2901 62.7127 91.0188 63.3688 91.0713 64.4531L91.3467 70.6582C91.373 71.4364 91.6265 71.8252 92.1074 71.8252H92.2646V72.0488H89.3525V71.8252H89.5098C90.0344 71.8252 90.284 71.4364 90.2578 70.6582L90.0088 64.4922L87.542 72.1797H87.3193L84.8926 64.5059L84.6436 70.6582C84.6174 71.4363 84.8532 71.8251 85.3516 71.8252H85.5352V72.0488H83.2656V71.8252H83.4492C83.9302 71.8252 84.1926 71.4364 84.2363 70.6582L84.499 64.4531C84.5252 63.9022 84.468 63.4691 84.3281 63.1543C84.1969 62.8397 83.9522 62.6165 83.5938 62.4854L83.3574 62.3936V62.21H85.2598L87.792 70.1328ZM59.4707 62.4326H59.3008C58.7936 62.4326 58.54 62.6911 58.54 63.207V71.6152H60.0742C60.6599 71.6152 61.0971 71.467 61.3857 71.1699C61.6743 70.8639 61.9062 70.3477 62.0811 69.6221L62.1475 69.3721H62.3174L61.9502 72.0488H56.5586V71.8252H56.7158C57.223 71.8252 57.4765 71.5676 57.4766 71.0518V63.207C57.4766 62.6911 57.223 62.4326 56.7158 62.4326H56.5586V62.21H59.4707V62.4326ZM65.748 62.4326H65.5771C65.0702 62.4327 64.8164 62.6912 64.8164 63.207V71.0518C64.8165 71.5674 65.0702 71.8251 65.5771 71.8252H65.748V72.0488H62.8359V71.8252H62.9932C63.5003 71.8252 63.7538 71.5676 63.7539 71.0518V63.207C63.7539 62.6911 63.5004 62.4326 62.9932 62.4326H62.8359V62.21H65.748V62.4326ZM76.7773 62.4326H76.6074C76.1002 62.4326 75.8467 62.6911 75.8467 63.207V66.8271L78.457 63.2598C78.868 62.7088 78.8286 62.4326 78.3389 62.4326H78.1416V62.21H80.3984V62.4326H80.3066C80.018 62.4326 79.7507 62.5204 79.5059 62.6953C79.2699 62.8702 79.0081 63.1546 78.7197 63.5479L76.6992 66.2637L79.585 70.8154C80.0134 71.4887 80.4288 71.8251 80.8311 71.8252H80.9102V72.0488H80.1758C79.765 72.0488 79.4323 71.9787 79.1787 71.8389C78.9251 71.6902 78.6578 71.3923 78.3779 70.9463L75.8467 66.9326V71.0518C75.8468 71.5676 76.1003 71.8252 76.6074 71.8252H76.7773V72.0488H73.8652V71.8252H74.0234C74.5303 71.8251 74.7841 71.5674 74.7842 71.0518V63.207C74.7842 62.6912 74.5304 62.4327 74.0234 62.4326H73.8652V62.21H76.7773V62.4326ZM98.4229 64.5449H98.2646L98.1992 64.2568C98.0506 63.6711 97.8581 63.2556 97.6221 63.0107C97.3947 62.7659 97.0276 62.6426 96.5205 62.6426H94.9727V66.7881H95.9297C96.3144 66.7881 96.5857 66.6746 96.7432 66.4473C96.9093 66.2199 97.0228 65.8302 97.084 65.2793L97.1104 65.0303H97.2812V68.9268H97.1104L97.084 68.6904C97.0228 68.1482 96.9093 67.7675 96.7432 67.5488C96.5857 67.3303 96.3144 67.2207 95.9297 67.2207H94.9727V71.6152H96.625C97.2107 71.6152 97.6479 71.467 97.9365 71.1699C98.2251 70.8639 98.4569 70.3477 98.6318 69.6221L98.6982 69.3721H98.8682L98.501 72.0488H92.9912V71.8252H93.1494C93.6563 71.8251 93.9101 71.5674 93.9102 71.0518V63.207C93.9102 62.6912 93.6563 62.4328 93.1494 62.4326H92.9912V62.21H98.2383L98.4229 64.5449Z" fill="white"/>
</g>
<defs>
<clipPath id="clip0_421_550">
<rect width="150" height="150" fill="white"/>
</clipPath>
</defs>
</svg>
