<svg width="150" height="150" viewBox="0 0 150 150" fill="none" xmlns="http://www.w3.org/2000/svg">
<rect width="150" height="150" rx="75" fill="white" fill-opacity="0.2"/>
<path d="M82.6367 85.9482L85.1494 78.001H86.9785V78.1846L86.7412 78.2764C86.1449 78.5044 85.8733 79.1626 85.9258 80.25L86.2021 86.4736C86.2285 87.2542 86.4826 87.6453 86.9648 87.6455H87.123V87.8691H84.2021V87.6455H84.3604C84.8864 87.6453 85.1367 87.2541 85.1104 86.4736L84.8604 80.29L82.3867 88H82.1621L79.7285 80.3027L79.4785 86.4736C79.4522 87.2541 79.6888 87.6453 80.1885 87.6455H80.373V87.8691H78.0967V87.6455H78.2812C78.7636 87.6454 79.0265 87.2542 79.0703 86.4736L79.334 80.25C79.3602 79.6979 79.3032 79.2639 79.1631 78.9482C79.0315 78.6325 78.7854 78.4079 78.4258 78.2764L78.1885 78.1846V78.001H80.0967L82.6367 85.9482ZM62.4727 80.5137H62.3145L62.2363 80.1582C62.0872 79.5267 61.8941 79.0835 61.6572 78.8291C61.4204 78.5661 61.0388 78.4346 60.5127 78.4346H59.9463V86.8691C59.9464 87.3864 60.2013 87.6455 60.71 87.6455H60.8809V87.8691H57.96V87.6455H58.1309C58.6307 87.6455 58.8807 87.3864 58.8809 86.8691V78.4346H58.3281C57.802 78.4346 57.4204 78.5661 57.1836 78.8291C56.9468 79.0835 56.7536 79.5267 56.6045 80.1582L56.5254 80.5137H56.3545L56.5518 78.001H62.2754L62.4727 80.5137ZM72.8799 78.001C73.6869 78.001 74.3144 78.2637 74.7617 78.79C75.2177 79.3075 75.4462 79.9784 75.4463 80.8027C75.4463 81.6184 75.2089 82.294 74.7354 82.8291C74.2704 83.3642 73.6253 83.6318 72.8008 83.6318H71.6826V86.8691C71.6827 87.3864 71.92 87.6455 72.3936 87.6455H72.6172V87.8691H69.6963V87.6455H69.8535C70.3622 87.6455 70.6171 87.3864 70.6172 86.8691V79C70.617 78.4828 70.3621 78.2246 69.8535 78.2246H69.6963V78.001H72.8799ZM93.2998 80.3428H93.1416L93.0762 80.0527C92.9271 79.4651 92.7339 79.0483 92.4971 78.8027C92.269 78.5572 91.9003 78.4346 91.3916 78.4346H89.8389V82.5928H90.7998C91.1856 82.5927 91.4574 82.478 91.6152 82.25C91.7818 82.0219 91.8957 81.6315 91.957 81.0791L91.9834 80.8291H92.1543V84.7373H91.9834L91.957 84.5C91.8956 83.9564 91.7819 83.5747 91.6152 83.3555C91.4574 83.1363 91.1855 83.0264 90.7998 83.0264H89.8389V87.4346H91.4971C92.0846 87.4345 92.5231 87.2855 92.8125 86.9873C93.102 86.6803 93.3343 86.1626 93.5098 85.4346L93.5762 85.1846H93.7471L93.3779 87.8691H87.8525V87.6455H88.0098C88.5184 87.6455 88.7733 87.3864 88.7734 86.8691V79C88.7733 78.4828 88.5184 78.2246 88.0098 78.2246H87.8525V78.001H93.1152L93.2998 80.3428ZM68.4238 86.4346C68.5553 86.8727 68.6997 87.184 68.8574 87.3682C69.0153 87.5524 69.2134 87.6445 69.4502 87.6445H69.5283V87.8682H66.6602V87.6445H66.8975C67.4148 87.6444 67.5503 87.2453 67.3047 86.4473L66.6865 84.4209H63.8975L63.2783 86.4873C63.0504 87.2589 63.1827 87.6445 63.6738 87.6445H63.8975V87.8682H61.7529V87.6445H61.8311C62.0766 87.6445 62.2787 87.5572 62.4365 87.3818C62.5944 87.1977 62.7395 86.8906 62.8711 86.4609L65.5283 77.7373H65.7393L68.4238 86.4346ZM64.0283 84H66.5547L65.292 79.8555L64.0283 84ZM71.6826 83.1982H72.7227C73.2575 83.1981 73.6519 82.9824 73.9062 82.5527C74.1693 82.1142 74.3008 81.5307 74.3008 80.8027C74.3007 79.2243 73.7837 78.4348 72.749 78.4346H71.6826V83.1982ZM68.582 62C69.2485 62.0001 69.8007 62.2727 70.2393 62.8164V64.9482H70.042L70.0293 64.6318C69.9942 63.9566 69.8539 63.4171 69.6084 63.0137C69.3628 62.6015 69.0117 62.3956 68.5557 62.3955C68.1609 62.3955 67.8227 62.5396 67.542 62.8291C67.2701 63.1186 67.1348 63.5049 67.1348 63.9873C67.1348 64.3381 67.1956 64.6539 67.3184 64.9346C67.4499 65.2153 67.6215 65.4525 67.832 65.6455C68.0424 65.8296 68.2702 66.0093 68.5156 66.1846C68.7612 66.36 69.0074 66.5483 69.2529 66.75C69.5073 66.943 69.7397 67.1587 69.9502 67.3955C70.1606 67.6323 70.3274 67.9345 70.4502 68.3027C70.5818 68.6712 70.6475 69.0927 70.6475 69.5664C70.6474 70.4259 70.419 71.0967 69.9629 71.5791C69.5068 72.0527 68.9322 72.29 68.2393 72.29C67.4237 72.2899 66.7263 72.0006 66.1475 71.4219V69.1318H66.3447L66.3584 69.4482C66.4111 70.2022 66.5995 70.8028 66.9238 71.25C67.2484 71.6886 67.6915 71.9082 68.2529 71.9082C68.7353 71.9082 69.1168 71.7591 69.3975 71.4609C69.6869 71.1539 69.832 70.7284 69.832 70.1846C69.832 69.7812 69.7662 69.4172 69.6348 69.0928C69.512 68.7683 69.3452 68.5005 69.1348 68.29C68.9331 68.0796 68.7045 67.8824 68.4502 67.6982C68.2046 67.5053 67.9545 67.3121 67.7002 67.1191C67.4546 66.9262 67.2261 66.7193 67.0156 66.5C66.814 66.272 66.6471 65.9913 66.5156 65.6582C66.3929 65.3162 66.332 64.9297 66.332 64.5C66.3321 63.7721 66.538 63.1757 66.9502 62.7109C67.3712 62.2373 67.9154 62 68.582 62ZM100.236 62C101.192 62.0001 102.021 62.3384 102.723 63.0137V65.3428H102.513V65.1055C102.495 64.3424 102.279 63.6981 101.867 63.1719C101.464 62.6456 100.933 62.3818 100.275 62.3818C99.3982 62.3819 98.7139 62.8299 98.2227 63.7246C97.7316 64.6105 97.4863 65.751 97.4863 67.1455C97.4864 68.5313 97.7315 69.6718 98.2227 70.5664C98.7139 71.4611 99.3855 71.9082 100.236 71.9082C100.903 71.9081 101.442 71.6709 101.854 71.1973C102.267 70.7149 102.481 70.0969 102.499 69.3428L102.513 68.9609H102.723V71.1973C102.003 71.9253 101.166 72.29 100.21 72.29C99.0259 72.29 98.0826 71.8075 97.3809 70.8428C96.6792 69.878 96.3282 68.6541 96.3281 67.1719C96.3281 65.7158 96.7056 64.4912 97.46 63.5C98.223 62.5003 99.1488 62 100.236 62ZM40.1494 69.7246V63.8555C40.1494 63.3733 40.07 63.018 39.9121 62.79C39.7543 62.5533 39.4912 62.4346 39.123 62.4346H38.9258V62.2109H41.623V62.4346H41.4385C40.8421 62.4346 40.544 62.9084 40.5439 63.8555V72.2109H40.333L35.5039 64.1455V70.4346C35.5039 70.917 35.5833 71.2768 35.7412 71.5137C35.899 71.7417 36.1621 71.8554 36.5303 71.8555H36.7412V72.0791H34.0303V71.8555H34.2285C34.8159 71.8552 35.1094 71.3817 35.1094 70.4346V64.3818C35.1093 63.3821 34.82 62.7554 34.2412 62.501L34.0303 62.4082V62.2109H35.6494L40.1494 69.7246ZM94.2578 69.7246V63.8555C94.2578 63.3733 94.1783 63.018 94.0205 62.79C93.8626 62.5534 93.5997 62.4346 93.2314 62.4346H93.0342V62.2109H95.7314V62.4346H95.5469C94.9506 62.4347 94.6524 62.9085 94.6523 63.8555V72.2109H94.4414L89.6133 64.1455V70.4346C89.6133 70.9169 89.6918 71.2768 89.8496 71.5137C90.0075 71.7417 90.2712 71.8555 90.6396 71.8555H90.8496V72.0791H88.1396V71.8555H88.3369C88.9244 71.8553 89.2178 71.3818 89.2178 70.4346V64.3818C89.2177 63.3821 88.9285 62.7553 88.3496 62.501L88.1396 62.4082V62.2109H89.7578L94.2578 69.7246ZM113.694 70.8691C113.887 70.8692 114.045 70.93 114.168 71.0527C114.299 71.1755 114.365 71.3383 114.365 71.54C114.365 71.7416 114.303 71.9036 114.181 72.0264C114.058 72.1491 113.896 72.2108 113.694 72.2109C113.501 72.2109 113.343 72.1491 113.221 72.0264C113.098 71.9036 113.036 71.7417 113.036 71.54C113.036 71.3471 113.098 71.1892 113.221 71.0664C113.343 70.9349 113.501 70.8691 113.694 70.8691ZM47.6904 64.5537H47.5332L47.4668 64.2637C47.3177 63.6761 47.1245 63.2593 46.8877 63.0137C46.6597 62.7683 46.2916 62.6456 45.7832 62.6455H44.2305V66.8037H45.1904C45.5764 66.8037 45.8489 66.689 46.0068 66.4609C46.1734 66.2328 46.2873 65.8424 46.3486 65.29L46.375 65.04H46.5459V68.9482H46.375L46.3486 68.7109C46.2872 68.1673 46.1734 67.7857 46.0068 67.5664C45.8489 67.3471 45.5764 67.2373 45.1904 67.2373H44.2305V71.6455H45.8877C46.4754 71.6455 46.9146 71.4965 47.2041 71.1982C47.4936 70.8912 47.7259 70.3735 47.9014 69.6455L47.9668 69.3955H48.1377L47.7695 72.0791H42.2432V71.8555H42.4014C42.91 71.8554 43.1641 71.5966 43.1641 71.0791V63.2109C43.164 62.6936 42.91 62.4346 42.4014 62.4346H42.2432V62.2109H47.5068L47.6904 64.5537ZM54.2949 64.5537H54.1377L54.0713 64.2637C53.9222 63.6761 53.729 63.2593 53.4922 63.0137C53.2642 62.7683 52.8961 62.6456 52.3877 62.6455H50.835V66.8037H51.7949C52.1809 66.8037 52.4534 66.689 52.6113 66.4609C52.7779 66.2328 52.8917 65.8424 52.9531 65.29L52.9795 65.04H53.1504V68.9482H52.9795L52.9531 68.7109C52.8917 68.1673 52.7779 67.7857 52.6113 67.5664C52.4534 67.3471 52.1809 67.2373 51.7949 67.2373H50.835V71.6455H52.4922C53.0799 71.6455 53.5191 71.4965 53.8086 71.1982C54.098 70.8912 54.3304 70.3735 54.5059 69.6455L54.5713 69.3955H54.7422L54.374 72.0791H48.8477V71.8555H49.0059C49.5146 71.8554 49.7686 71.5966 49.7686 71.0791V63.2109C49.7685 62.6936 49.5145 62.4346 49.0059 62.4346H48.8477V62.2109H54.1113L54.2949 64.5537ZM58.8076 62.2109C59.9041 62.2109 60.7992 62.6717 61.4922 63.5928C62.1939 64.505 62.5449 65.6806 62.5449 67.1191C62.5449 68.5401 62.189 69.7245 61.4785 70.6719C60.768 71.6103 59.86 72.0791 58.7549 72.0791H55.4521V71.8555H55.6104C56.1191 71.8555 56.373 71.5966 56.373 71.0791V63.2109C56.373 62.6936 56.119 62.4346 55.6104 62.4346H55.4521V62.2109H58.8076ZM74.5254 62.4346H74.3545C73.8458 62.4346 73.5909 62.6936 73.5908 63.2109V71.0791C73.5908 71.5966 73.8457 71.8555 74.3545 71.8555H74.5254V72.0791H71.6045V71.8555H71.7617C72.2705 71.8555 72.5254 71.5966 72.5254 71.0791V63.2109C72.5253 62.6936 72.2704 62.4346 71.7617 62.4346H71.6045V62.2109H74.5254V62.4346ZM78.251 62.4346H78.0801C77.5716 62.4347 77.3175 62.6937 77.3174 63.2109V71.6455H78.8564C79.4442 71.6455 79.8834 71.4965 80.1729 71.1982C80.4623 70.8912 80.6947 70.3735 80.8701 69.6455L80.9355 69.3955H81.1064L80.7383 72.0791H75.3301V71.8555H75.4883C75.997 71.8555 76.251 71.5966 76.251 71.0791V63.2109C76.2509 62.6936 75.997 62.4346 75.4883 62.4346H75.3301V62.2109H78.251V62.4346ZM87.0742 64.5537H86.916L86.8506 64.2637C86.7015 63.676 86.5083 63.2593 86.2715 63.0137C86.0434 62.7681 85.6748 62.6455 85.166 62.6455H83.6133V66.8037H84.5742C84.96 66.8036 85.2318 66.6889 85.3896 66.4609C85.5563 66.2329 85.6701 65.8426 85.7314 65.29L85.7578 65.04H85.9287V68.9482H85.7578L85.7314 68.7109C85.67 68.1672 85.5563 67.7857 85.3896 67.5664C85.2318 67.3472 84.96 67.2374 84.5742 67.2373H83.6133V71.6455H85.2715C85.8589 71.6455 86.2975 71.4963 86.5869 71.1982C86.8764 70.8913 87.1087 70.3735 87.2842 69.6455L87.3506 69.3955H87.5215L87.1523 72.0791H81.627V71.8555H81.7842C82.2929 71.8555 82.5479 71.5966 82.5479 71.0791V63.2109C82.5478 62.6936 82.2929 62.4346 81.7842 62.4346H81.627V62.2109H86.8896L87.0742 64.5537ZM109.123 64.5537H108.966L108.899 64.2637C108.75 63.6761 108.557 63.2593 108.32 63.0137C108.092 62.7683 107.724 62.6456 107.216 62.6455H105.663V66.8037H106.623C107.009 66.8037 107.282 66.689 107.439 66.4609C107.606 66.2328 107.72 65.8424 107.781 65.29L107.808 65.04H107.979V68.9482H107.808L107.781 68.7109C107.72 68.1673 107.606 67.7857 107.439 67.5664C107.282 67.3471 107.009 67.2373 106.623 67.2373H105.663V71.6455H107.32C107.908 71.6455 108.347 71.4965 108.637 71.1982C108.926 70.8912 109.159 70.3735 109.334 69.6455L109.399 69.3955H109.57L109.202 72.0791H103.676V71.8555H103.834C104.343 71.8555 104.597 71.5966 104.597 71.0791V63.2109C104.597 62.6936 104.343 62.4346 103.834 62.4346H103.676V62.2109H108.939L109.123 64.5537ZM57.4395 71.6455H58.7021C59.5968 71.6455 60.2724 71.2287 60.7285 70.3955C61.1847 69.5622 61.4131 68.4739 61.4131 67.1318C61.413 65.8075 61.1758 64.7288 60.7021 63.8955C60.2372 63.0622 59.5705 62.6455 58.7021 62.6455H57.4395V71.6455ZM113.431 62C113.676 62 113.926 62.0794 114.181 62.2373C114.768 62.6057 115.212 63.04 115.51 63.54C115.817 64.04 115.97 64.6539 115.97 65.3818C115.97 66.1362 115.781 66.7107 115.404 67.1055C115.036 67.5001 114.541 67.7374 113.918 67.8164L113.825 69.4082H113.602L113.418 66.7373C114.856 66.6933 115.575 66.0659 115.575 64.8555C115.575 64.3293 115.426 63.9301 115.128 63.6582C114.83 63.3776 114.347 63.2334 113.681 63.2246L113.522 63.2109C113.111 63.2108 112.904 63.0136 112.904 62.6191C112.904 62.2069 113.08 62 113.431 62Z" fill="white"/>
</svg>
