<svg width="3685" height="445" viewBox="0 0 3685 445" fill="none" xmlns="http://www.w3.org/2000/svg">
<path d="M3612.32 410.329C3612.32 424.174 3618.86 433.019 3634.62 433.019H3639.24V438.402H3561.17V433.019H3566.17C3581.94 433.019 3588.09 424.174 3588.09 410.329V211.51H3568.86C3538.48 211.51 3529.64 226.123 3521.18 256.888L3519.25 263.81H3515.41L3520.79 199.973H3679.62L3685 263.81H3681.15L3679.23 256.888C3670.77 226.123 3661.93 211.51 3631.55 211.51H3612.32V410.329Z" fill="white"/>
<path d="M3444.41 144.212H3325.58V410.33C3325.58 424.175 3332.11 433.02 3347.88 433.02H3352.5V438.404H3274.43V433.02H3279.04C3294.81 433.02 3301.35 424.175 3301.35 410.33V28.0732C3301.35 14.2289 3294.81 5.38391 3279.04 5.38391H3274.43V0H3352.5V5.38391H3347.88C3332.11 5.38391 3325.58 14.2289 3325.58 28.0732V132.675H3444.41V28.0732C3444.41 14.2289 3437.87 5.38391 3422.49 5.38391H3417.49V0H3495.94V5.38391H3490.55C3475.17 5.38391 3468.63 14.2289 3468.63 28.0732V410.33C3468.63 424.175 3475.17 433.02 3490.55 433.02H3495.94V438.404H3417.49V433.02H3422.49C3437.87 433.02 3444.41 424.175 3444.41 410.33V144.212Z" fill="white"/>
<path d="M3164.44 434.557C3181.75 434.557 3197.13 428.019 3208.28 417.252V335.724C3208.28 321.495 3202.51 312.65 3186.75 312.65H3181.36V307.266H3254.04V312.65H3249.05C3237.51 312.65 3232.51 321.495 3232.51 335.724V418.021C3212.9 434.557 3191.36 444.171 3163.29 444.171C3095.22 444.171 3052.53 379.18 3052.53 293.806C3052.53 208.818 3102.53 144.211 3163.29 144.211C3194.05 144.211 3215.2 155.363 3234.82 175.361V236.506H3229.82V233.045C3229.82 188.051 3203.28 153.825 3163.29 153.825C3110.22 153.825 3079.45 214.202 3079.45 294.191C3079.45 373.796 3110.6 434.557 3164.44 434.557Z" fill="white"/>
<path d="M3000.73 228.046V410.329C3000.73 424.174 3007.26 433.019 3023.03 433.019H3027.64V438.402H2949.58V433.019H2954.19C2969.96 433.019 2976.5 424.174 2976.5 410.329V228.046C2976.5 214.202 2969.96 205.357 2954.19 205.357H2949.58V199.973H3027.64V205.357H3023.03C3007.26 205.357 3000.73 214.202 3000.73 228.046Z" fill="white"/>
<path d="M2788.73 438.404H2710.66V433.02H2716.05C2734.51 433.02 2742.2 416.099 2742.2 390.333V213.818C2742.2 185.36 2734.51 165.363 2716.43 156.903L2710.66 154.211V149.98H2749.12L2887.56 384.18V198.051C2887.56 170.747 2879.87 155.364 2857.95 155.364H2851.8V149.98H2929.87V155.364H2924.48C2906.02 155.364 2898.33 172.285 2898.33 198.051V442.249H2892.95L2752.97 205.358V390.333C2752.97 417.637 2760.66 433.02 2782.58 433.02H2788.73V438.404Z" fill="white"/>
<path d="M2586.83 438.404H2489.15V433.02H2493.77C2509.53 433.02 2516.07 424.175 2516.07 410.331V178.054C2516.07 164.594 2509.53 155.364 2493.77 155.364H2489.15V149.98H2586.83C2645.67 149.98 2689.89 211.895 2689.89 294.192C2689.89 376.104 2645.67 438.404 2586.83 438.404ZM2582.99 426.867C2638.75 426.867 2663.74 368.798 2663.74 294.192C2663.74 219.202 2634.9 161.517 2582.99 161.517H2540.3V426.867H2582.99Z" fill="white"/>
<path d="M2437.02 28.0732V410.33C2437.02 424.175 2443.56 433.02 2459.33 433.02H2463.94V438.404H2385.88V433.02H2390.49C2406.26 433.02 2412.8 424.175 2412.8 410.33V28.0732C2412.8 14.2289 2406.26 5.38391 2390.49 5.38391H2385.88V0H2463.94V5.38391H2459.33C2443.56 5.38391 2437.02 14.2289 2437.02 28.0732Z" fill="white"/>
<path d="M2311.76 398.793L2304.07 160.748L2230.62 392.255H2224.85L2152.55 161.901L2145.24 398.793C2144.47 419.559 2151.78 433.019 2166.01 433.019H2170.62V438.403H2106.79V433.019H2111.4C2127.17 433.019 2132.94 419.559 2133.71 398.793L2141.4 166.131C2142.94 133.828 2136.01 115.753 2114.86 106.908L2108.33 104.217V99.9863H2156.4L2234.85 344.185L2311.38 99.9863H2358.68V104.217L2352.14 106.908C2334.06 114.215 2326.76 133.443 2328.3 166.131L2336.37 398.793C2337.14 419.559 2342.91 433.019 2358.68 433.019H2363.29V438.403H2285.22V433.019H2289.84C2305.61 433.019 2312.53 419.559 2311.76 398.793Z" fill="white"/>
<path d="M1903.91 144.211C1962.75 144.211 2008.13 209.202 2008.13 294.191C2008.13 379.18 1962.75 444.171 1903.91 444.171C1845.07 444.171 1799.7 379.18 1799.7 294.191C1799.7 209.202 1845.07 144.211 1903.91 144.211ZM1903.91 155.748C1853.15 155.748 1826.23 215.74 1826.23 294.191C1826.23 372.642 1853.15 432.634 1903.91 432.634C1954.67 432.634 1981.59 372.642 1981.59 294.191C1981.59 215.74 1954.67 155.748 1903.91 155.748Z" fill="white"/>
<path d="M1709.03 410.329C1709.03 424.174 1715.56 433.019 1731.33 433.019H1735.94V438.402H1657.88V433.019H1662.88C1678.64 433.019 1684.8 424.174 1684.8 410.329V211.51H1665.57C1635.19 211.51 1626.34 226.123 1617.88 256.888L1615.96 263.81H1612.12L1617.5 199.973H1776.32L1781.71 263.81H1777.86L1775.94 256.888C1767.48 226.123 1758.63 211.51 1728.25 211.51H1709.03V410.329Z" fill="white"/>
<path d="M1364.75 438.404V433.02H1369.37C1385.13 433.02 1391.67 424.175 1391.67 410.33V28.0732C1391.67 14.6135 1385.13 5.38391 1369.37 5.38391H1364.75V0H1512.43L1517.81 63.8377H1513.58L1512.04 56.9155C1504.73 24.6121 1495.12 11.5369 1464.36 11.5369H1415.9V134.598H1444.74C1469.35 134.598 1475.89 121.522 1479.35 89.6035L1480.12 82.6813H1485.12V196.128H1480.12L1479.35 189.206C1475.89 158.441 1469.35 146.134 1444.74 146.134H1415.9V426.867H1468.59C1503.97 426.867 1516.27 408.023 1524.73 370.336L1526.27 363.414H1530.88L1520.12 438.404H1364.75Z" fill="white"/>
<path d="M1232.08 203.049C1232.08 229.584 1240.93 248.428 1282.46 275.732C1323.99 303.036 1335.53 329.956 1335.53 366.489C1335.53 418.405 1306.3 444.171 1268.61 444.171C1241.31 444.171 1221.7 432.634 1209.39 421.482V357.644H1214.01L1214.39 363.413C1217.08 406.484 1236.31 434.557 1269.77 434.557C1298.23 434.557 1318.22 415.329 1318.22 383.41C1318.22 349.568 1305.92 327.264 1265.92 299.19C1225.93 271.117 1215.93 246.89 1215.93 214.586C1215.93 174.207 1241.31 144.211 1277.46 144.211C1297.84 144.211 1313.99 154.594 1324.38 167.669V225.354H1319.38L1318.99 217.278C1317.45 181.514 1305.15 154.21 1275.92 154.21C1252.46 154.21 1232.08 173.053 1232.08 203.049Z" fill="white"/>
<path d="M1072.44 144.211C1131.28 144.211 1176.66 209.202 1176.66 294.191C1176.66 379.18 1131.28 444.171 1072.44 444.171C1013.6 444.171 968.225 379.18 968.225 294.191C968.225 209.202 1013.6 144.211 1072.44 144.211ZM1072.44 155.748C1021.68 155.748 994.76 215.74 994.76 294.191C994.76 372.642 1021.68 432.634 1072.44 432.634C1123.2 432.634 1150.12 372.642 1150.12 294.191C1150.12 215.74 1123.2 155.748 1072.44 155.748Z" fill="white"/>
<path d="M889.743 426.867C925.123 426.867 937.429 408.024 945.89 370.336L947.428 363.414H952.043L941.275 438.404H790.91V433.02H795.525C811.292 433.02 817.83 424.175 817.83 410.331V78.0673C817.83 64.6076 811.292 55.378 795.525 55.378H790.91V49.9941H868.977V55.378H864.362C848.595 55.378 842.057 64.6076 842.057 78.0673V426.867H889.743Z" fill="white"/>
<path d="M691.036 434.557C731.03 434.557 757.565 402.638 757.565 359.952V352.26H762.565V413.021C741.414 434.172 719.878 444.171 690.651 444.171C622.968 444.171 580.281 379.18 580.281 293.806C580.281 208.818 630.275 144.211 691.036 144.211C721.801 144.211 742.952 155.363 762.565 175.361V236.506H757.565V233.045C757.565 188.051 731.03 153.825 691.036 153.825C637.966 153.825 607.201 214.202 607.201 294.191C607.201 373.796 637.966 434.557 691.036 434.557Z" fill="white"/>
<path d="M372.069 203.049C372.069 229.584 380.914 248.428 422.447 275.732C463.98 303.036 475.517 329.956 475.517 366.489C475.517 418.405 446.29 444.171 408.603 444.171C381.299 444.171 361.686 432.634 349.38 421.482V357.644H353.995L354.379 363.413C357.071 406.484 376.299 434.557 409.756 434.557C438.214 434.557 458.212 415.329 458.212 383.41C458.212 349.568 445.906 327.264 405.911 299.19C365.916 271.117 355.917 246.89 355.917 214.586C355.917 174.207 381.299 144.211 417.448 144.211C437.83 144.211 453.981 154.594 464.365 167.669V225.354H459.365L458.981 217.278C457.442 181.514 445.136 154.21 415.91 154.21C392.451 154.21 372.069 173.053 372.069 203.049Z" fill="white"/>
<path d="M313.063 159.21C313.063 176.515 305.371 206.127 305.371 246.122H300.757C300.757 206.127 293.065 176.515 293.065 159.21C293.065 151.519 297.296 146.135 303.064 146.135C308.833 146.135 313.063 151.519 313.063 159.21Z" fill="white"/>
<path d="M194.803 410.33C194.803 424.175 201.34 433.02 217.108 433.02H221.722V438.404H143.656V433.02H148.655C164.422 433.02 170.575 424.175 170.575 410.33V11.5369H151.347C120.966 11.5369 112.121 26.1504 103.661 56.9155L101.738 63.8377H97.8926L103.276 0H262.102L267.485 63.8377H263.64L261.717 56.9155C253.257 26.1504 244.412 11.5369 214.031 11.5369H194.803V410.33Z" fill="white"/>
<path d="M51.1471 228.046V410.329C51.1471 424.174 57.6847 433.019 73.4518 433.019H78.0666V438.402H0V433.019H4.61477C20.3819 433.019 26.9195 424.174 26.9195 410.329V228.046C26.9195 214.202 20.3819 205.357 4.61477 205.357H0V199.973H78.0666V205.357H73.4518C57.6847 205.357 51.1471 214.202 51.1471 228.046Z" fill="white"/>
</svg>
