<svg width="59" height="80" viewBox="0 0 59 80" fill="none" xmlns="http://www.w3.org/2000/svg">
<path d="M54.7716 1.82246C54.7716 1.82246 57.9093 -0.58694 58.3898 0.134956L58.3996 0.139839C58.8796 0.862378 56.4689 2.90896 55.6251 3.27265C54.7816 3.63679 54.5441 6.047 52.6144 9.90156C50.6844 13.7616 48.9962 25.8074 48.9962 27.8586C48.9962 29.9099 48.7546 37.6203 49.9621 38.4641C50.2334 38.6529 50.4902 38.7011 50.7277 38.6623L52.129 37.382C52.129 37.382 49.2393 51.8431 46.8292 59.1945C44.4192 66.5459 43.0951 75.0996 37.7902 77.6311C32.4899 80.1624 29.2357 80.764 25.7394 78.9553C22.2479 77.1464 15.3774 70.4012 16.9435 60.6398C18.5098 50.8783 24.1734 43.8857 29.5949 43.2844C35.0163 42.6831 39.4725 46.6593 39.715 49.1906C39.9526 51.7219 40.3165 55.097 37.7853 56.6633C35.2544 58.2245 36.4562 57.1432 35.9767 57.0217C35.4918 56.9004 35.8549 53.7677 35.6124 53.0451C35.3699 52.3194 34.7675 44.3653 29.8273 45.5725C24.8861 46.7799 21.754 50.393 21.0314 56.1779C20.3089 61.9631 21.2732 72.9278 25.7296 75.4592C30.1909 77.9905 32.3588 76.7824 33.8039 75.9387C35.2539 75.0948 40.7964 71.8407 42.964 60.3918C44.2199 53.7581 45.1515 47.173 45.714 42.799C45.1903 43.4197 44.2348 44.4139 43.5656 44.2443C42.6006 44.0019 42.3576 41.9553 42.3576 41.9553C42.3583 41.9339 42.6021 34.8273 43.6867 25.4436C44.7656 16.0677 53.8852 4.05144 53.9279 3.99531C53.8866 4.00356 50.9069 4.6013 49.4718 5.19843C48.0265 5.80472 43.3228 8.09342 41.2765 10.2609C39.2302 12.4335 36.5773 17.132 36.5773 17.132C36.5554 17.109 34.4057 14.8468 33.4455 15.4445C32.4853 16.0458 31.7625 19.1786 32.8439 20.2648C33.9301 21.3459 35.3751 19.9006 35.3751 19.9006L43.8126 13.3928C43.8126 13.3928 40.4377 17.127 38.7501 19.7795C37.0626 22.432 32.8439 30.8654 32.8439 30.8654C32.8439 30.8654 30.9141 27.9751 30.1915 25.2014C29.469 22.4324 29.8272 14.2367 29.9484 11.5842C30.0697 8.9318 31.3937 7.72897 33.0812 5.79902C34.7688 3.86908 42.8383 4.35371 44.2882 4.35371C45.7383 4.35369 49.3508 4.23317 51.0382 3.75312C52.7183 3.27035 54.7536 1.83518 54.7716 1.82246ZM0.0626404 0.134956C0.540088 -0.582293 3.64032 1.79183 3.68959 1.81757C3.68959 1.81757 5.73643 3.26816 7.42397 3.74824C9.11148 4.22828 12.7288 4.34979 14.174 4.3498C15.619 4.3498 23.6934 3.86418 25.381 5.79414C27.0685 7.72407 28.3925 8.92694 28.5138 11.5793C28.635 14.2318 28.9932 22.4276 28.2706 25.1965C27.5481 27.9702 25.6183 30.8605 25.6183 30.8605C25.6183 30.8605 21.3996 22.4271 19.7121 19.7746C18.0245 17.1221 14.6496 13.3879 14.6496 13.3879L23.0822 19.8957C23.0822 19.8957 24.5272 21.3459 25.6134 20.26C26.6997 19.1737 25.9769 16.041 25.0119 15.4396C24.0522 14.8422 21.9042 17.1017 21.88 17.1271C21.88 17.1271 19.232 12.4238 17.1808 10.2561C15.1297 8.08369 10.4308 5.795 8.98549 5.19355C7.54548 4.59635 4.56525 3.99856 4.52455 3.99043C4.56381 4.04213 13.6819 16.0611 14.7706 25.4387C15.8498 34.8216 16.0938 41.9206 16.0949 41.9504C16.0949 41.9504 15.8567 43.997 14.8917 44.2394C13.933 44.4754 12.3806 42.3375 12.3605 42.3098C12.3713 42.3559 13.3178 46.408 12.841 46.7707C12.3609 47.1344 9.82913 44.8452 9.10659 43.759C8.38306 42.6782 6.35539 37.4308 6.33315 37.3732C6.35027 37.4072 7.30847 39.2948 8.50014 38.4592C9.7076 37.6154 9.46596 29.9049 9.46596 27.8537C9.46596 25.8025 7.7778 13.7518 5.8478 9.89668C3.92275 6.04166 3.67983 3.63146 2.83608 3.26777C1.99187 2.90835 -0.417345 0.857359 0.0626404 0.134956Z" fill="black"/>
</svg>
