<svg width="86" height="83" viewBox="0 0 86 83" fill="none" xmlns="http://www.w3.org/2000/svg">
<path d="M45.8691 59.5205C49.7091 59.5205 52.0195 62.9102 52.0195 67.9502C52.0195 74.8202 47.5792 82.9805 41.6992 82.9805C37.8894 82.9802 35.5801 79.5896 35.5801 74.5498C35.5802 67.68 39.9894 59.5209 45.8691 59.5205ZM30.7529 60C34.0827 60 35.3729 62.0098 35.373 64.5596C35.373 68.8795 32.4329 72.6904 28.083 72.6904H26.6729L26.793 72.0898L27.9629 72.0303C31.0829 71.8203 33.123 68.3701 33.123 64.6201C33.123 62.3101 32.2527 60.9297 30.3027 60.9297H28.4727L23.793 80.2803C23.733 80.5201 23.7324 80.7299 23.7324 80.8799C23.7324 81.6298 24.1528 82.0497 25.1426 82.0498H25.5332L25.4131 82.5H18.9629L19.0527 82.0498H19.4131C20.6729 82.0497 21.3931 81.3601 21.6631 80.2803L26.043 62.2197C26.1029 61.9798 26.1328 61.7698 26.1328 61.5898C26.1328 60.8699 25.7126 60.4502 24.7227 60.4502H24.333L24.4229 60H30.7529ZM62.8916 60C66.2214 60 67.5116 62.0098 67.5117 64.5596C67.5117 68.8795 64.5716 72.6904 60.2217 72.6904H58.8115L58.9316 72.0898L60.1016 72.0303C63.2215 71.8203 65.2617 68.3701 65.2617 64.6201C65.2617 62.3101 64.3914 60.9297 62.4414 60.9297H60.6113L55.9316 80.2803C55.8717 80.5201 55.8711 80.7299 55.8711 80.8799C55.8711 81.6298 56.2915 82.0497 57.2812 82.0498H57.6719L57.5518 82.5H51.1016L51.1914 82.0498H51.5518C52.8116 82.0497 53.5317 81.3601 53.8018 80.2803L58.1816 62.2197C58.2416 61.9798 58.2715 61.7698 58.2715 61.5898C58.2714 60.8699 57.8513 60.4502 56.8613 60.4502H56.4717L56.5615 60H62.8916ZM45.8096 60.3604C40.9797 60.3604 37.9493 68.9397 37.9492 75.3896C37.9492 79.3196 38.94 82.1396 41.79 82.1396C46.6197 82.1391 49.6493 73.5601 49.6494 67.1104C49.6494 63.1804 48.6296 60.3604 45.8096 60.3604ZM84.2832 72.5L80.041 76.7422L75.7988 72.5L80.041 68.2578L84.2832 72.5ZM57.377 29.5205C59.447 29.5205 60.8272 30.2103 61.9072 31.3203L60.4375 37.1396H59.957C60.077 36.2098 60.1973 35.2199 60.1973 34.0801C60.1973 31.6501 59.417 30.3604 57.167 30.3604C52.2472 30.3608 47.8672 38.3702 47.8672 45.54C47.8672 49.5 49.2778 52.1396 52.0078 52.1396C53.0877 52.1395 54.1678 51.7203 55.0977 50.9404L56.627 44.4902C56.717 44.1902 56.7773 43.9197 56.7773 43.6797C56.7772 43.0799 56.447 42.7197 55.3672 42.7197H54.9775L55.0674 42.2705H60.917L60.7979 42.7197H60.4678C59.3578 42.7197 59.0278 43.3202 58.7578 44.4902L57.1973 51C55.4574 52.2599 53.8676 52.9804 51.7979 52.9805C47.8979 52.9805 45.5879 49.86 45.5879 45C45.5879 37.5602 51.1671 29.5209 57.377 29.5205ZM73.123 40.2441C75.1709 40.2443 76.4023 42.0524 76.4023 44.7402C76.4023 48.4042 74.0344 52.7559 70.8984 52.7559C68.8666 52.7557 67.6348 50.9476 67.6348 48.2598C67.6349 44.5958 69.9872 40.2441 73.123 40.2441ZM11.8203 30.4502H11.46C10.2001 30.4502 9.48001 31.1399 9.20996 32.2197L4.83008 50.2803C4.77012 50.5202 4.74023 50.7302 4.74023 50.9102C4.7403 51.63 5.18998 52.0497 6.17969 52.0498H6.57031L6.4502 52.5H0L0.0898438 52.0498H0.450195C1.70999 52.0497 2.43017 51.3601 2.7002 50.2803L7.08008 32.2197C7.14003 31.9798 7.16992 31.7698 7.16992 31.5898C7.16986 30.8699 6.74969 30.4502 5.75977 30.4502H5.37012L5.45996 30H11.9404L11.8203 30.4502ZM19.3799 30.4502H19.2002C18.0302 30.4502 17.28 31.02 15 33.4199L9.08984 39.6299L13.3496 50.1299C13.8896 51.4498 14.3999 52.0497 15.5098 52.0498H15.7197L15.5996 52.5H14.6104C12.5104 52.5 11.9404 52.1699 11.1904 50.3701L7.25977 40.5596L14.3701 33C15.2101 32.1 15.5996 31.6499 15.5996 31.1699C15.5996 30.69 15.3297 30.4502 14.7598 30.4502H14.2197L14.3096 30H19.5303L19.3799 30.4502ZM28.0508 30.4502H27.6904C26.4306 30.4502 25.7105 31.1399 25.4404 32.2197L21.0605 50.2803C21.0006 50.5202 20.9707 50.7302 20.9707 50.9102C20.9708 51.63 21.4204 52.0497 22.4102 52.0498H22.8008L22.6807 52.5H16.2305L16.3203 52.0498H16.6807C17.9405 52.0497 18.6606 51.3601 18.9307 50.2803L23.3105 32.2197C23.3705 31.9798 23.4004 31.7698 23.4004 31.5898C23.4003 30.8699 22.9802 30.4502 21.9902 30.4502H21.6006L21.6904 30H28.1709L28.0508 30.4502ZM39.248 48.3301L42.6982 33.75C42.8482 33.09 42.9385 32.58 42.9385 32.04C42.9385 31.1101 42.4882 30.4503 41.3184 30.4502H40.2383L40.3877 30H46.3584L46.2383 30.4502H45.8779C44.4981 30.4503 44.0483 31.7701 43.5684 33.75L39.7578 49.8301L40.6582 52.5H38.3779L32.3184 34.5898L28.8086 48.75C28.6586 49.38 28.5078 50.0401 28.5078 50.5801C28.5078 51.54 28.8984 52.0801 29.8584 52.0801H30.9385L30.9082 52.5H24.8486L24.9082 52.0801H25.2686C26.5583 52.0798 27.3983 50.7898 27.9082 48.75L31.1484 35.8203C31.4784 34.5303 31.6582 33.66 31.6582 32.79C31.6582 31.7102 31.2382 30.6907 30.0986 30.4805L29.498 30.3604L29.5879 30H33.0977L39.248 48.3301ZM84.8096 43.332H84.5693V43.0439C84.5373 41.556 84.3288 40.9961 83.0488 40.9961H81.001L79.7051 46.3398H80.873C81.769 46.3398 82.2969 45.7481 82.7129 44.4844L82.8252 44.1797H83.0332L81.8652 48.9482H81.6406L81.6895 48.6436C81.8973 47.3479 81.7846 46.8359 80.7607 46.8359H79.5928L78.4893 51.3164C78.4573 51.4443 78.4414 51.5564 78.4414 51.6523C78.4415 52.0361 78.6812 52.2597 79.209 52.2598H79.417L79.3535 52.5H75.9131L75.9609 52.2598H76.1533C76.8411 52.2597 77.2095 51.8922 77.3535 51.3164L79.6895 41.7002C79.7214 41.5723 79.7373 41.4602 79.7373 41.3643C79.7373 40.9803 79.5132 40.7559 78.9854 40.7559H78.7773L78.8252 40.5H85.2246L84.8096 43.332ZM73.0908 40.6924C70.5149 40.6924 68.8985 45.268 68.8984 48.708C68.8984 50.8038 69.4267 52.3083 70.9463 52.3086C73.5223 52.3086 75.1387 47.732 75.1387 44.292C75.1386 42.1961 74.5947 40.6924 73.0908 40.6924ZM51.2461 5.7002H50.7363L50.8262 5.12988C51.1561 2.22012 51.1259 0.929808 48.4863 0.929688H46.1455L41.4658 20.2803C41.4059 20.5202 41.376 20.7302 41.376 20.9102C41.376 21.6301 41.7962 22.0498 42.7861 22.0498H43.1758L43.0557 22.5H36.6064L36.6963 22.0498H37.0557C38.3155 22.0498 39.0356 21.3601 39.3057 20.2803L43.9863 0.929688H42.1562C39.7563 0.929688 38.6761 2.33999 37.5361 5.12988L37.3262 5.7002H36.8164L38.4658 0H52.6855L51.2461 5.7002ZM60.5898 0.450195H60.2295C58.9696 0.45021 58.2495 1.13988 57.9795 2.21973L56.0293 10.3496H64.7598L66.71 2.21973C66.7699 1.97988 66.7998 1.76975 66.7998 1.58984C66.7997 0.869969 66.3795 0.450229 65.3896 0.450195H65L65.1191 0H71.5693L71.4795 0.450195H71.0898C69.8299 0.450195 69.1392 1.13982 68.8691 2.21973L64.4893 20.2803C64.4293 20.5201 64.3994 20.7302 64.3994 20.9102C64.3995 21.6301 64.8196 22.0498 65.8096 22.0498H66.1992L66.1094 22.5H59.6299L59.7197 22.0498H60.1094C61.3692 22.0498 62.059 21.3601 62.3291 20.2803L64.5195 11.2803H55.7891L53.5996 20.2803C53.5396 20.5202 53.5098 20.7302 53.5098 20.9102C53.5098 21.63 53.9595 22.0497 54.9492 22.0498H55.3398L55.2197 22.5H48.7695L48.8594 22.0498H49.2197C50.4795 22.0497 51.1997 21.3601 51.4697 20.2803L55.8496 2.21973C55.9096 1.97984 55.9395 1.76977 55.9395 1.58984C55.9394 0.86994 55.5192 0.450195 54.5293 0.450195H54.1396L54.2295 0H60.71L60.5898 0.450195ZM84.5166 5.30957H84.0967L84.0664 4.76953C84.0064 1.97989 83.6167 0.929688 81.2168 0.929688H77.5869L75.2471 10.5H77.5869C79.2669 10.5 80.2571 9.38951 81.0371 7.01953L81.2471 6.4502H81.6367L79.4473 15.3604H79.0273L79.1172 14.79C79.5372 12.3901 79.2969 11.4004 77.377 11.4004H75.0371L72.5771 21.5703H76.207C79.0869 21.5703 80.1371 20.2199 81.7871 16.9199L82.0566 16.3799H82.4766L80.4072 22.5H68.0469L68.1367 22.0498H68.4971C69.7869 22.0497 70.477 21.3601 70.7471 20.2803L75.127 2.21973C75.1869 1.97984 75.2168 1.76977 75.2168 1.58984C75.2167 0.86994 74.7966 0.450195 73.8066 0.450195H73.417L73.5068 0H85.3271L84.5166 5.30957Z" fill="black"/>
</svg>
